<?xml version="1.0" encoding="utf-8"?>
<!-- Svg Vector Icons : http://www.onlinewebfonts.com/icon -->
<!DOCTYPE svg PUBLIC "-//W3C//DTD SVG 1.1//EN" "http://www.w3.org/Graphics/SVG/1.1/DTD/svg11.dtd">
<svg version="1.1" xmlns="http://www.w3.org/2000/svg" xmlns:xlink="http://www.w3.org/1999/xlink" x="0px" y="0px" viewBox="0 0 1000 1000" enable-background="new 0 0 1000 1000" xml:space="preserve">
<metadata> Svg Vector Icons : http://www.onlinewebfonts.com/icon </metadata>
<g><g transform="translate(0.000000,511.000000) scale(0.100000,-0.100000)"><path d="M4669.4,5006c-37-3.9-152-17.5-253.3-29.2c-1064-118.9-2110.5-627.5-2884.2-1401.2C773.8,2817.5,296.3,1854.8,136.5,759.6c-48.7-323.5-48.7-984.1,0-1305.7c161.8-1103,633.4-2054,1395.3-2816c656.7-656.7,1514.2-1128.4,2406.8-1323.2c370.3-81.8,627.5-107.2,1062.1-107.2c553.5,0,949.1,56.5,1432.4,204.6c1561,481.4,2780.9,1701.3,3262.3,3262.3C9843.5-842.3,9900-446.7,9900,106.8c0,434.6-25.4,691.8-107.2,1062.1c-194.9,892.5-666.5,1750-1323.2,2406.8C7719.3,4325.9,6776.1,4799.4,5712,4961.2C5472.3,4998.2,4833.1,5025.5,4669.4,5006z M5487.9,3519.1c0-456-9.7-430.7,150.1-430.7c128.6,0,467.7-52.6,674.3-105.2c165.6-42.9,458-146.2,516.4-183.2c17.5-13.6-5.8-128.6-103.3-512.5c-70.1-272.8-132.5-508.6-136.4-526.2c-9.7-29.2-35.1-23.4-200.7,44.8c-395.6,161.7-730.8,230-1122.5,230c-391.7,0-574.9-56.5-726.9-220.2c-101.3-109.1-136.4-251.4-101.3-391.7c60.4-239.7,348.8-419,1196.6-742.5C6164.2,479,6474,293.9,6723.5,26.9c272.8-288.4,391.7-619.7,389.7-1069.9c-3.9-465.7-136.4-797.1-452.1-1132.2c-255.3-272.8-689.9-504.7-1093.3-584.6l-118.9-23.4v-473.6v-475.5h-458h-458v438.5v436.5l-62.4,9.7c-35.1,5.8-130.6,15.6-210.5,21.4c-280.6,23.4-711.3,118.9-968.5,216.3c-155.9,58.5-356.6,159.8-356.6,179.3c0,27.3,267,1056.3,276.7,1066c5.8,5.8,87.7-25.3,183.2-70.1c691.8-321.6,1547.3-409.2,1954.6-204.6c214.4,109.1,313.8,257.2,313.8,469.6c0,327.4-296.2,571-984.2,808.7C3837.3-70.6,3375.4,245.1,3139.6,693.4c-105.2,202.7-148.1,393.6-150.1,670.4c0,288.4,42.9,469.7,173.5,730.8c76,154,122.8,216.3,268.9,362.5c265,267,578.8,440.4,976.3,537.9l163.7,40.9v446.3v444.3h458h458V3519.1z"/></g></g>
</svg>