<?xml version="1.0" encoding="utf-8"?>
<!-- Svg Vector Icons : http://www.onlinewebfonts.com/icon -->
<!DOCTYPE svg PUBLIC "-//W3C//DTD SVG 1.1//EN" "http://www.w3.org/Graphics/SVG/1.1/DTD/svg11.dtd">
<svg version="1.1" xmlns="http://www.w3.org/2000/svg" xmlns:xlink="http://www.w3.org/1999/xlink" x="0px" y="0px" viewBox="0 0 1000 1000" enable-background="new 0 0 1000 1000" xml:space="preserve">
<metadata> Svg Vector Icons : http://www.onlinewebfonts.com/icon </metadata>
<g><path d="M630.7,652.4c0-5.4-5.4-5.4-5.4-5.4c-5.4-5.4-16.3-32.7-92.6-43.6c-27.2-5.4-43.6-16.3-54.4-21.8c-5.4-10.9,0-16.3,0-16.3c0-5.4,0-32.7,0-32.7s38.1-27.2,49-59.9c16.3-10.9,21.8-16.3,27.2-27.2c0,0,10.9-43.6-5.4-49c0-5.4-5.4-10.9-10.9-10.9l0,0c5.4-10.9,0-49,0-59.9c-5.4-5.4-5.4-21.8-5.4-32.7c-5.4-10.9-10.9-27.2-27.2-32.7c-16.3-5.4-21.8,0-32.7,0c-10.9,0-21.8-27.2-38.1-27.2l-32.7,5.4c-16.3,0-16.3,5.4-21.8,5.4c-10.9,0,0,0-27.2,5.4c-27.2,5.4-38.1,43.6-38.1,54.4c0,10.9,0,49,0,70.8c0,10.9-5.4,10.9-5.4,10.9c-16.3,0-10.9,49-10.9,49c0,5.4,0,10.9,5.4,21.8c0,5.4,5.4,10.9,21.8,16.3c0,0,0,0,0,5.4c10.9,21.8,32.7,38.1,43.6,43.6c0,5.4,0,21.8,0,27.2c0,0,5.4,38.1-70.8,49c-76.2,10.9-81.7,38.1-98,49c-16.3,10.9-10.9,76.2-10.9,76.2h5.4c0,5.4,0,10.9,0,10.9l462.8,5.4c0,0,0-59.9-16.3-76.2C636.1,663.3,636.1,657.9,630.7,652.4z"/><path d="M832.1,728.7c0,0,0-43.6-10.9-54.4c-10.9-10.9-16.3-27.2-76.2-38.1c-49-5.4-54.4-38.1-54.4-38.1v-21.8c0,0,27.2-16.3,38.1-43.6c10.9-10.9,16.3-10.9,16.3-21.8c0,0,0-38.1-16.3-38.1l0,0l0,0c0,0,0,0,0-5.4c0-16.3,0-38.1,0-49c0-10.9,5.4-38.1-16.3-43.6c-10.9-5.4-10.9,0-10.9,0c-5.4,0-5.4,0-5.4,0c-5.4,0-16.3-21.8-27.2-21.8h-5.4l0,0l-27.2,5.4c-10.9,0-10.9,5.4-16.3,5.4c-5.4,0,5.4,0-16.3,5.4c-21.8,5.4-21.8,32.7-27.2,43.6c0,10.9,0,38.1,0,54.4c0,10.9-10.9,10.9-10.9,10.9c-10.9,0-10.9,38.1-10.9,38.1c0,10.9,0,16.3,16.3,21.8c10.9,27.2,32.7,38.1,32.7,38.1s0,16.3,0,27.2c21.8,10.9,38.1,21.8,54.4,43.6c16.3,43.6,16.3,87.1,16.3,87.1h152.4c0,0,0,0,0-5.4H832.1z"/><path d="M500,10C227.8,10,10,227.8,10,500c0,272.2,217.8,490,490,490c272.2,0,490-217.8,490-490C990,227.8,772.2,10,500,10z M500,908.3C276.8,908.3,91.7,723.2,91.7,500C91.7,276.8,276.8,91.7,500,91.7c223.2,0,408.3,185.1,408.3,408.3C908.3,723.2,728.7,908.3,500,908.3z"/></g>
</svg>