<?xml version="1.0" encoding="utf-8"?>
<!-- Svg Vector Icons : http://www.onlinewebfonts.com/icon -->
<!DOCTYPE svg PUBLIC "-//W3C//DTD SVG 1.1//EN" "http://www.w3.org/Graphics/SVG/1.1/DTD/svg11.dtd">
<svg version="1.1" xmlns="http://www.w3.org/2000/svg" xmlns:xlink="http://www.w3.org/1999/xlink" x="0px" y="0px" viewBox="0 0 1000 1000" enable-background="new 0 0 1000 1000" xml:space="preserve">
<metadata> Svg Vector Icons : http://www.onlinewebfonts.com/icon </metadata>
<g><path d="M186.4,562.9c0,0.1-0.1,0.1-0.1,0.2c0,0-0.1,0.1-0.1,0.2l0,0C186.2,563.2,186.3,563,186.4,562.9C186.6,562.7,186.6,562.7,186.4,562.9z"/><path d="M500,10C229.4,10,10,229.4,10,500s219.4,490,490,490s490-219.4,490-490S770.6,10,500,10z M429.2,738.9c-5.3,20-35.5,35.4-54.7,28c-9.6-3.7-13.6-12-10.6-21.7c0.3-0.9,0.6-1.8,0.9-2.8c1.1-3,5.9-14.7,6.3-15.7l7.4-18.8l-19.5,5.2c-1.2,0.3-1.2,0.3-2.4,0.7c-1.4,0.4-6.4,1.8-7.5,2.1c-2.6,0.7-4.5,1.2-6.3,1.6c-0.7,0.1-0.7,0.1-1.4,0.3c-9.1,1.7-14.2,1-18.3-2.5c-6-5.2-7.6-10.5-5.3-17.6c1.2-3.6,6-18,5.7-17.2l5.9-17.7l-18.1,4.6c-2.2,0.6-9.2,2.4-9.2,2.4c-3.3,0.9-5.8,1.4-8.1,2c-0.6,0.1-0.6,0.1-1.1,0.2c-13.9,2.9-24-8.4-19.5-21.9c0.2-0.5,0.2-0.5,0.3-1c1-2.9,4.9-13.9,5.2-14.7l6.3-17.9l-18.4,4.6c-1.3,0.3-2.7,0.7-5.3,1.3c-2.6,0.6-4.5,1.1-6.4,1.8c-19.5,6.9-31.7-6.8-27.5-25.4c4.3-18.8,19.8-34.5,36.3-36.8c17.8-2.6,32.1,11.8,29.2,29.5c-0.2,1.2-0.4,2.6-1,6.2l-2.2,13.7l13.7-1.9c13-1.8,21.3-0.1,27.7,6.3c6.4,6.4,7.9,14.4,5.6,28l-2.1,13l13.2-1.2c14.9-1.4,23,0.6,29.1,7.8c6.5,7.8,7.6,16.8,3.9,29.5l-4.2,14.5l15-1.4c1.4-0.1,2.8-0.3,4.8-0.6c5.1-0.7,6.6-0.8,8.5-0.7C422.7,705.1,434,720.8,429.2,738.9z M459.1,306.6c-4.7,2.6-9,5-10.6,5.9c-6.9,3.8-12.5,7-17.9,10.2c-23.7,13.9-35.2,20.8-48.6,29.5c-32.6,21.3-45.7,58.5-33,93.9c12,33.3,47.8,56.9,80.2,51.6c9.4-1.6,18.9-4.6,29.2-9.1c12.6-5.5,23.1-10.2,44.7-20.3c0.6-0.3,0.6-0.3,1.2-0.6c9.7-4.5,14.1-6.6,19.6-9c17.2-7.9,29.3-5.6,42.9,7.9c11.2,11.2,21.4,21.3,39.6,39.6c3.9,3.9,3.9,3.9,7.7,7.7c37.3,37.3,57.2,57.2,79.7,79.6c9,8.9,9.4,21.5,1.5,29.6c-8,8.2-20.4,7.8-29.9-1.6c-2-2-2-2-4-4c-0.7-0.7-0.7-0.7-1.4-1.3c-17.5-17.4-25.8-25.6-36.1-35.3c-0.1-0.1-0.3-0.3-1.3-1.6c-6.6-7.6-14.5-10.8-23.3-2.7c-7,6.7-2.5,18.4,3.4,24.8c9.5,10.5,17.5,18.9,34.9,37c0.3,0.3,0.3,0.3,0.6,0.6c2,2,2,2,3.9,4.1c11.1,11.6,9,27.9-3.9,34.1c-8,3.9-17.1,1.9-25-6c-15.4-15.4-31.6-31.2-50.9-50.1c-1.5-1.5-3.2-2.7-5.3-4c-0.1-0.1-3.9-2.3-4.9-3l-12.7-8.3l-2.9,14.9c-1.8,9.3,0.9,15.5,7,22.1c0.8,0.8,0.8,0.8,1.4,1.5c10,10.9,18.3,19.6,36.4,38.6c0.2,0.3,0.2,0.3,0.5,0.5c0.8,0.8,0.8,0.8,1.6,1.6c4.8,5,7,9.4,7.2,14.5c0.2,8.9-4.2,16-11.8,19.3c-7.7,3.3-16.1,1.5-22.5-5.1c-12.3-12.6-23.2-23.7-44-44.6c-3.7-3.7-6.3-6-9.6-8c-2.9-1.8-4.9-2.1-8.9-2.3c0,0,0,0,0,0c-0.8,0-0.9,0-0.9,0l-11.7-1.6l0.1,11.8c0,0.1,0,0.2-0.1,1c0,0,0,0,0,0.1c-0.3,4-0.2,6.1,1.3,9.3c1.7,3.4,3.5,5.6,7.1,9.4c3.4,3.6,6.4,6.7,12,12.5c0.7,0.7,0.7,0.7,1.4,1.4c10.2,10.5,15.2,15.7,20.8,21.9c6.4,7,6.9,17.3,1.4,24.9c-6.8,9.3-19.8,10.8-28.4,3.4c-4-3.5-7.4-7.1-13.8-14.2c0,0,0,0-0.1-0.1c0,0.2,0,0.4,0,0.7c0-0.4,0-0.7-1.5-2.4c0.8,0.9,0.9,0.9,1.6,1.7c3.3-37-15.8-68.6-50-82.6c0.4,0.2,0-0.3,0-0.2c-8.1-23.1-23.3-39.5-45.6-48.9c0.3,0.1-0.2-0.5-0.3-0.6c-8.2-21.5-23-36.7-44.1-45.6c0,0-0.5-0.5-0.4-0.1c-14.2-39.7-54.5-59.2-96.6-49.1c-26.3,6.2-45.3,22.2-57,46.2c2.4,0.8-3-1,0,0l0,0l0,0c0,0.1,0.1-0.2,0,0c0.1-0.2,0,0.1,0,0l0,0c0.2-0.2-0.1,0.1,0,0c0.8-1.8-0.9,1.8,0,0c-9.9-3.5-15.8-5.5-21.8-7.6c0,2,0-2.9,0,0l0,0c1.8,0.6-1.8-0.6,0,0c1.1,0.4-1-0.4,0,0c0-9.1,0-11.6,0-24.5c0-54.6,0-99,0-192.2c-5.2-1.8,4.3,1.4,0,0l0,0c0,4.9,0-4.7,0,0c3.3,1.1,6.9,2.4,11.8,4.1c0.1,0,0.1,0,0.1,0c30.4,10.5,44.2,15.1,61.5,20c18.6,5.3,37.7,1.4,55.8-10.1c34.2-21.6,63.2-36.8,92.8-47.5C414.5,291,437.5,293.1,459.1,306.6 M835.2,542.3c-3.2,0.6-7,1.3-12.2,2.3c-3.2,0.6-3.2,0.6-6.3,1.2c-19.8,3.7-31.9,5.9-44.7,7.8c-13.1,2-24.7-2.2-35.2-12.7c-19.4-19.3-35.6-35.3-69.7-68.9c-1.2-1.2-1.2-1.2-2.4-2.3c-32.8-32.4-48.4-47.8-67-66.3c-17.1-17-38.3-21.1-59.5-11.3c-16,7.4-28.6,13.8-56.5,28.3c-0.1,0.1-0.1,0.1-0.2,0.1c-11,5.7-15.9,8.3-22.1,11.4c-3.1,1.6-5.7,2.9-10.9,5.7c-0.2,0.1-0.2,0.1-0.5,0.3c-6.1,3.2-8.9,4.7-12.4,6.4c-14.4,7.2-31.2,1.9-38.8-12.4c-7.4-13.8-2.4-30.9,11.4-38.7c34-19.3,61.4-34.7,122.5-69.1c0.4-0.2,0.4-0.2,0.8-0.4c20.2-11.4,29.2-16.4,40.4-22.8c0.1-0.1,0.1-0.1,0.2-0.1c0.1,0,0.1,0,0.1-0.1c0.4-0.2,0.4-0.2,1-0.6c18.7-12.2,35.6-10.6,53.6,4.6c7.4,6.3,13.5,11.5,26.5,22.5c0.5,0.4,0.5,0.4,1,0.9c20.8,17.6,30.5,25.8,42.2,35.8c13.7,11.8,29.8,15.8,47.5,11.9c12.6-2.7,23.4-5.1,44.8-9.8c16.2-3.6,23.6-5.2,32.5-7.1c5-1.1,9.5-2.1,14-3.1 M835.2,355.5c0,50.7,0,96.3,0,186.8"/></g>
</svg>